<?xml version="1.0" standalone="no"?>
<!DOCTYPE svg PUBLIC "-//W3C//DTD SVG 20010904//EN"
 "http://www.w3.org/TR/2001/REC-SVG-20010904/DTD/svg10.dtd">
<svg version="1.0" xmlns="http://www.w3.org/2000/svg"
 width="200.000000pt" height="200.000000pt" viewBox="0 0 200.000000 200.000000"
 preserveAspectRatio="xMidYMid meet">

<g transform="translate(0.000000,200.000000) scale(0.100000,-0.100000)"
fill="#000000" stroke="none">
<path d="M622 1729 c-24 -12 -54 -36 -67 -53 -26 -34 -102 -213 -166 -391 -40
-110 -80 -181 -150 -265 -46 -57 -58 -80 -110 -221 -23 -63 -54 -140 -70 -171
-33 -66 -37 -103 -12 -113 34 -14 268 -18 291 -6 29 15 28 31 -1 31 -31 0
-143 56 -151 75 -12 32 23 106 86 182 36 43 81 103 100 133 19 30 45 64 58 75
12 11 45 54 73 95 28 41 72 98 98 127 26 29 66 91 90 138 24 47 46 85 49 85 3
0 24 -37 48 -81 48 -89 153 -207 216 -244 23 -13 67 -31 99 -41 58 -18 66 -27
44 -55 -21 -27 -13 -116 13 -142 12 -12 35 -41 51 -64 38 -55 92 -73 153 -49
l40 16 24 -30 c13 -16 75 -71 138 -121 63 -50 119 -99 124 -109 6 -12 26 -19
62 -23 29 -3 66 -9 82 -13 22 -5 27 -4 21 6 -6 9 0 10 24 5 37 -8 97 3 84 16
-5 5 -40 13 -78 19 -145 21 -152 26 -283 202 -38 51 -86 108 -106 126 -29 26
-36 40 -36 69 0 29 -8 44 -47 82 -51 51 -87 113 -98 169 -14 75 -56 132 -240
320 -114 118 -216 201 -278 227 -52 21 -124 19 -175 -6z"/>
</g>
</svg>
